<svg width="33" height="42" viewBox="0 0 33 42" fill="none" xmlns="http://www.w3.org/2000/svg">
<path fill-rule="evenodd" clip-rule="evenodd" d="M15.2455 8.30209C16.0352 7.8993 16.9648 7.8993 17.7545 8.30209L31.4493 15.2869C33.5169 16.3414 33.5169 19.3512 31.4493 20.4057L29.4544 21.4232L31.4493 22.4406C33.5169 23.4951 33.5169 26.5049 31.4493 27.5594L29.4544 28.5769L31.4493 29.5943C33.5169 30.6488 33.5169 33.6586 31.4493 34.7131L17.7545 41.6979C16.9648 42.1007 16.0352 42.1007 15.2455 41.6979L1.55067 34.7131C-0.51689 33.6586 -0.516887 30.6488 1.55067 29.5943L3.54556 28.5769L1.55067 27.5594C-0.51689 26.5049 -0.516887 23.4951 1.55067 22.4406L3.54556 21.4232L1.55067 20.4057C-0.516892 19.3512 -0.516887 16.3414 1.55067 15.2869L15.2455 8.30209ZM7.3238 20.1509C7.3147 20.1462 7.30555 20.1415 7.29635 20.137L2.80518 17.8463L16.5 10.8615L30.1948 17.8463L25.7034 20.1371C25.6944 20.1416 25.6854 20.1461 25.6764 20.1508L16.5 24.8311L7.3238 20.1509ZM6.68185 23.0228L2.80518 25L7.29618 27.2906L7.32397 27.3047L16.5 31.9848L25.6764 27.3046L25.7035 27.2907L30.1948 25L26.3181 23.0228L17.7545 27.3905C16.9648 27.7933 16.0352 27.7933 15.2455 27.3905L6.68185 23.0228ZM2.80518 32.1537L6.68185 30.1765L15.2455 34.5442C16.0352 34.947 16.9648 34.947 17.7545 34.5442L26.3181 30.1765L30.1948 32.1537L16.5 39.1385L2.80518 32.1537Z" fill="#F58A07"/>
</svg>
