<svg width="36" height="42" viewBox="0 0 36 42" fill="none" xmlns="http://www.w3.org/2000/svg">
<path fill-rule="evenodd" clip-rule="evenodd" d="M28.2232 16.6017C30.8841 18.5908 31.2602 22.3203 29.0463 24.7637L18.0001 36.9551L6.95397 24.765C4.73972 22.3214 5.11582 18.5914 7.77704 16.6021C10.5007 14.566 14.4549 15.2155 16.3207 18.0054L16.9467 18.9413C17.3215 19.5016 18.0978 19.6638 18.6807 19.3036C18.8633 19.1908 19.0053 19.04 19.1026 18.869L19.6797 18.0058C21.545 15.2155 25.4994 14.5656 28.2232 16.6017ZM18.0003 16.114C15.1957 12.6338 9.92543 11.9402 6.23648 14.6978C2.43789 17.5373 1.90105 22.8615 5.06165 26.3494L17.056 39.586C17.5112 40.0884 18.3038 40.1409 18.8263 39.7033C18.8942 39.6465 18.9542 39.5841 19.0062 39.5176L30.9387 26.348C34.0989 22.8603 33.562 17.5367 29.7637 14.6974C26.0748 11.9399 20.8046 12.6338 18.0003 16.114Z" fill="#F58A07" stroke="#F58A07" stroke-linecap="round" stroke-linejoin="round"/>
</svg>
