<svg width="116" height="114" viewBox="0 0 116 114" fill="none" xmlns="http://www.w3.org/2000/svg">
<path d="M50.5058 102.944L48.4734 114L44.3578 113.253C43.5448 113.103 42.9351 112.854 42.427 112.506C41.9697 112.157 41.614 111.759 41.4616 111.261C41.2583 110.763 41.2583 110.265 41.36 109.717C41.4616 109.269 41.614 108.87 41.8173 108.621C42.0205 108.372 42.3254 108.123 42.6302 107.974C42.9351 107.824 43.2908 107.775 43.6464 107.725V107.625C43.2908 107.526 42.9351 107.376 42.6302 107.077C42.3254 106.779 42.0713 106.43 41.9189 105.982C41.7664 105.533 41.7156 105.035 41.8173 104.488C41.9189 103.94 42.1729 103.442 42.4778 103.043C42.8335 102.645 43.2908 102.346 43.9005 102.197C44.5102 102.047 45.2724 102.047 46.1361 102.197L50.5058 102.944ZM47.6604 108.92L45.374 108.522C44.9675 108.472 44.6118 108.472 44.307 108.571C44.0021 108.671 43.6972 108.82 43.4432 109.069C43.1891 109.318 43.0875 109.567 42.9859 109.966C42.8843 110.414 42.9859 110.812 43.2908 111.211C43.5956 111.609 44.0529 111.808 44.7134 111.958L47.0507 112.356L47.6604 108.92ZM48.5242 104.039L46.0853 103.591C45.2724 103.442 44.6626 103.492 44.2561 103.741C43.8497 103.99 43.5956 104.338 43.494 104.786C43.4432 105.135 43.4432 105.484 43.5956 105.782C43.6972 106.081 43.9513 106.38 44.2561 106.629C44.561 106.878 44.9167 107.028 45.374 107.077L47.9145 107.526L48.5242 104.039Z" fill="#F58A07"/>
<path d="M36.7359 99.1589C37.4981 99.4577 38.1078 99.9059 38.5143 100.504C38.9208 101.051 39.1748 101.699 39.2256 102.446C39.2764 103.193 39.124 103.94 38.7683 104.737C38.4127 105.534 37.9554 106.181 37.3965 106.629C36.8375 107.127 36.177 107.426 35.5165 107.526C34.8051 107.625 34.0938 107.526 33.3824 107.227C32.9251 107.028 32.5186 106.779 32.163 106.48C31.8073 106.181 31.5533 105.783 31.35 105.334C31.1468 104.886 31.0451 104.388 31.096 103.79C31.096 103.193 31.2992 102.595 31.6041 101.898L31.8581 101.35L38.1586 103.94L37.6505 105.085L32.8743 103.093C32.7219 103.492 32.6203 103.89 32.6711 104.239C32.7219 104.637 32.8235 104.936 33.0268 105.235C33.23 105.534 33.5349 105.783 33.9413 105.932C34.3986 106.131 34.8051 106.181 35.2116 106.081C35.6181 106.032 35.9738 105.832 36.2786 105.583C36.5835 105.334 36.8375 104.986 36.99 104.637L37.3965 103.741C37.5997 103.243 37.7013 102.745 37.7013 102.296C37.6505 101.848 37.5489 101.45 37.2948 101.151C37.0408 100.852 36.6851 100.553 36.2278 100.354C35.923 100.255 35.6689 100.155 35.364 100.155C35.11 100.155 34.8051 100.155 34.6019 100.255C34.3986 100.354 34.1446 100.504 33.9413 100.703L32.5695 99.8561C32.8743 99.5075 33.23 99.2087 33.6873 99.0095C34.1446 98.8103 34.6019 98.7107 35.11 98.7605C35.6181 98.8103 36.177 98.9099 36.7359 99.1589Z" fill="#F58A07"/>
<path d="M22.2549 98.3619L23.6776 99.0093C23.6268 99.2085 23.576 99.4077 23.6268 99.6069C23.6268 99.8062 23.7284 100.055 23.8301 100.254C23.9825 100.454 24.1857 100.703 24.4398 100.852C24.8463 101.101 25.2019 101.25 25.6084 101.25C25.9641 101.25 26.269 101.101 26.4722 100.852C26.6246 100.603 26.6754 100.354 26.6246 100.105C26.5738 99.856 26.3706 99.5571 26.0149 99.2085L25.0495 98.2125C24.4906 97.6149 24.1857 97.0671 24.0841 96.5691C23.9825 96.071 24.0841 95.5232 24.4398 95.0252C24.7446 94.6268 25.1003 94.328 25.6084 94.1786C26.0657 94.0292 26.5738 93.9794 27.1835 94.1288C27.7425 94.2284 28.3014 94.4774 28.9111 94.8758C29.7241 95.4236 30.2322 96.0212 30.4862 96.6687C30.7403 97.3161 30.7403 98.0133 30.3846 98.7105L28.9111 98.0133C29.0635 97.6149 29.0635 97.2663 28.9619 96.9177C28.8095 96.5691 28.5554 96.2702 28.1489 95.9714C27.6916 95.6726 27.2852 95.5232 26.8787 95.5232C26.4722 95.5232 26.1673 95.6726 26.0149 95.9216C25.8625 96.1208 25.8117 96.3698 25.8625 96.6189C25.9133 96.8679 26.1165 97.1667 26.3706 97.4655L27.3868 98.5113C27.9457 99.1089 28.2506 99.6567 28.3522 100.205C28.4538 100.752 28.3014 101.25 27.9457 101.748C27.6408 102.147 27.2852 102.446 26.8279 102.595C26.3706 102.744 25.8625 102.744 25.3544 102.645C24.8463 102.545 24.2873 102.296 23.7792 101.948C23.0171 101.45 22.509 100.852 22.3057 100.254C22.0009 99.6567 22.0009 99.0093 22.2549 98.3619Z" fill="#F58A07"/>
<path d="M16.1577 98.5109L14.9382 97.3654L20.5782 91.6382C20.7814 91.3892 20.9338 91.19 20.9847 91.0406C21.0355 90.8414 21.0355 90.692 20.9338 90.5426C20.883 90.3932 20.7814 90.2438 20.629 90.1442C20.5274 90.0446 20.4257 89.9948 20.3749 89.945C20.3241 89.8952 20.2225 89.8454 20.1717 89.7956L20.9338 88.6003C21.0355 88.6501 21.1371 88.6999 21.2895 88.7996C21.442 88.8992 21.6452 89.0486 21.7976 89.198C22.1025 89.4968 22.3565 89.8454 22.509 90.194C22.6614 90.5426 22.7122 90.941 22.6614 91.3394C22.6106 91.7378 22.3565 92.1363 22.0009 92.4849L16.1577 98.5109ZM15.0907 94.7259L16.0052 93.7797L19.3587 96.967L18.4441 97.9133L15.0907 94.7259Z" fill="#F58A07"/>
<path d="M15.3449 80.8313C15.5989 81.2795 15.7514 81.7775 15.8022 82.2258C15.853 82.7238 15.7514 83.1222 15.5481 83.5206C15.3449 83.919 14.9892 84.2676 14.4811 84.5664C14.0746 84.8154 13.6681 84.915 13.3125 84.915C12.9568 84.915 12.6011 84.8154 12.2963 84.6162C11.9914 84.417 11.6865 84.2178 11.4325 83.919C11.1784 83.6202 10.8736 83.3214 10.6703 83.0226C10.3655 82.6242 10.1114 82.2756 9.90817 82.0266C9.70493 81.7775 9.5525 81.6281 9.40007 81.5285C9.24764 81.4289 9.09521 81.4787 8.89196 81.5783H8.84115C8.43467 81.8273 8.18062 82.1262 8.079 82.4748C7.97738 82.8234 8.079 83.2716 8.33305 83.7198C8.63791 84.2178 8.94277 84.5166 9.29845 84.666C9.65412 84.8154 10.0098 84.8652 10.3655 84.8154L10.8228 86.3095C10.2638 86.4091 9.75574 86.3593 9.29845 86.2099C8.84115 86.0605 8.43467 85.8115 8.079 85.5127C7.72333 85.1641 7.41846 84.8154 7.16441 84.3672C7.01198 84.0684 6.85955 83.7696 6.70712 83.3712C6.6055 83.0226 6.55469 82.6242 6.55469 82.2258C6.55469 81.8274 6.70712 81.4289 6.91036 81.0803C7.1136 80.7317 7.52008 80.3831 8.079 80.0345L13.0076 77.2456L13.8206 78.64L12.8044 79.2377L12.8552 79.2875C13.1092 79.2875 13.3633 79.2875 13.6681 79.3871C13.973 79.4867 14.2271 79.6361 14.5319 79.8353C14.8368 80.1341 15.0908 80.4329 15.3449 80.8313ZM13.973 81.1799C13.7189 80.7815 13.4649 80.4827 13.16 80.2835C12.8552 80.0843 12.4995 79.9847 12.1438 79.9847C11.7882 79.9847 11.4833 80.0843 11.1784 80.2337L10.213 80.7815C10.3147 80.7815 10.4163 80.8811 10.5179 80.9807C10.6195 81.0803 10.7719 81.2297 10.9244 81.4289C11.0768 81.5783 11.1784 81.7775 11.3309 81.927C11.4325 82.0764 11.5849 82.2258 11.6357 82.3254C11.839 82.5744 12.0422 82.8234 12.2454 82.9728C12.4487 83.172 12.7027 83.2716 12.906 83.3214C13.16 83.3712 13.4141 83.3214 13.6681 83.172C14.0238 82.9728 14.2271 82.674 14.2271 82.3254C14.3287 81.9768 14.2271 81.5783 13.973 81.1799Z" fill="#F58A07"/>
<path d="M14.0749 70.5224C14.2781 71.1698 14.3797 71.7176 14.3289 72.2655C14.3289 72.7635 14.2273 73.2117 14.0241 73.6101C13.8208 74.0085 13.6176 74.3073 13.3127 74.5563L12.2965 73.4109C12.3981 73.2615 12.5506 73.1121 12.6522 72.8631C12.7538 72.6639 12.8554 72.3651 12.9062 72.0662C12.957 71.7674 12.9062 71.369 12.7538 70.9706C12.5506 70.373 12.2457 69.9248 11.8392 69.626C11.4327 69.3272 10.8738 69.2774 10.2641 69.4766L8.63816 69.9746L8.68897 70.0742C8.89222 70.124 9.14627 70.1738 9.40032 70.2734C9.65437 70.373 9.90842 70.5722 10.2133 70.8212C10.5181 71.0702 10.6706 71.4686 10.823 71.9666C11.0262 72.6141 11.0771 73.2117 10.9246 73.8093C10.7722 74.4069 10.4673 74.9547 9.95923 75.4528C9.45113 75.9508 8.79059 76.2994 7.92682 76.5982C7.06304 76.8472 6.25008 76.9468 5.53873 76.8472C4.82739 76.7476 4.21766 76.4986 3.70956 76.1002C3.20146 75.7018 2.84579 75.1539 2.64254 74.5065C2.49011 74.0085 2.4393 73.5603 2.49011 73.2117C2.54092 72.8631 2.69335 72.5643 2.84579 72.3153C2.99822 72.0662 3.15065 71.867 3.30308 71.7176L3.25227 71.618L1.9312 72.0164L1.4231 70.4726L9.8068 67.8829C10.5181 67.6837 11.1279 67.6339 11.6868 67.8331C12.2457 68.0323 12.703 68.3311 13.1095 68.8291C13.516 69.3272 13.8716 69.8252 14.0749 70.5224ZM9.40032 71.9666C9.24789 71.5184 9.04465 71.1698 8.68897 70.9208C8.3333 70.6718 7.97763 70.5224 7.52034 70.5224C7.06304 70.4726 6.55494 70.5722 5.99603 70.7216C5.43711 70.871 4.97982 71.12 4.62415 71.4188C4.26847 71.7176 4.01442 72.0662 3.86199 72.4149C3.70956 72.8133 3.70956 73.2117 3.86199 73.6599C4.01442 74.1081 4.26847 74.5065 4.62415 74.7057C4.97982 74.9547 5.3863 75.0543 5.8436 75.1041C6.30089 75.1539 6.80899 75.0543 7.31709 74.9049C7.87601 74.7555 8.28249 74.5065 8.63816 74.2077C8.99384 73.9089 9.24789 73.5603 9.34951 73.2117C9.55275 72.8631 9.55275 72.4647 9.40032 71.9666Z" fill="#F58A07"/>
<path d="M8.99326 61.6082C9.09488 62.4548 8.94245 63.152 8.63758 63.7994C8.33272 64.4469 7.87543 64.9449 7.21489 65.2935C6.60517 65.6919 5.84301 65.8911 4.92843 65.9907C4.06465 66.0903 3.25169 65.9907 2.59115 65.6919C1.87981 65.4429 1.3209 65.0445 0.914412 64.4967C0.50793 63.9489 0.253878 63.3014 0.152257 62.5046C0.101447 62.0066 0.152257 61.5584 0.253878 61.1102C0.355499 60.6619 0.60955 60.2137 0.914412 59.8651C1.21927 59.4667 1.62576 59.1679 2.18467 58.9189C2.69277 58.6699 3.35331 58.5205 4.11546 58.4209L4.72519 58.3711L5.33491 65.0445L4.06465 65.1441L3.60736 60.0643C3.15007 60.1141 2.79439 60.2137 2.48953 60.4129C2.18467 60.6121 1.93062 60.911 1.77819 61.2098C1.62576 61.5086 1.52414 61.907 1.57495 62.3552C1.62576 62.8034 1.77819 63.2018 2.03224 63.5006C2.28629 63.7994 2.59115 64.0485 2.99764 64.1979C3.40412 64.3473 3.8106 64.3971 4.21708 64.3473L5.18248 64.2477C5.74139 64.1979 6.2495 64.0485 6.60517 63.7994C6.96084 63.5504 7.2657 63.2516 7.46895 62.903C7.62138 62.5046 7.723 62.1062 7.67219 61.6082C7.62138 61.3094 7.57057 61.0106 7.46895 60.7616C7.36732 60.5125 7.21489 60.3133 7.01165 60.1141C6.80841 59.9647 6.55436 59.8153 6.30031 59.7655L6.45274 58.1719C6.91003 58.2715 7.36732 58.4209 7.723 58.7197C8.07867 59.0185 8.38353 59.3671 8.63758 59.8651C8.89164 60.3631 8.94245 61.0106 8.99326 61.6082Z" fill="#F58A07"/>
<path d="M3.65834 53.4899L8.73938 54.0875L8.53614 55.731L0 54.7349L0.203241 53.1911L1.57512 53.3405V53.2409C1.16864 52.9919 0.812965 52.6433 0.609724 52.1951C0.406483 51.7468 0.304862 51.199 0.406483 50.6014C0.457293 50.0536 0.660534 49.5556 0.965396 49.1572C1.27026 48.7587 1.67674 48.4599 2.18484 48.3105C2.69295 48.1113 3.30267 48.0615 4.01402 48.1611L9.45072 48.8086L9.24748 50.452L3.96321 49.7548C3.35348 49.705 2.84538 49.8046 2.4389 50.0536C2.03241 50.3524 1.82917 50.7508 1.77836 51.2986C1.72755 51.697 1.77836 51.9959 1.93079 52.3445C2.08322 52.6433 2.28647 52.8923 2.59133 53.1413C2.84538 53.2907 3.20105 53.4401 3.65834 53.4899Z" fill="#F58A07"/>
<path d="M11.3311 42.783C11.0771 43.53 10.6706 44.1774 10.1117 44.5758C9.55275 45.024 8.89221 45.273 8.18087 45.3727C7.46952 45.4723 6.65656 45.3727 5.84359 45.0738C5.03063 44.775 4.31928 44.3766 3.81118 43.8786C3.30307 43.3806 2.9474 42.783 2.79497 42.0857C2.64254 41.3885 2.69335 40.6913 2.9474 39.9443C3.15064 39.3467 3.45551 38.8486 3.86199 38.4502C4.26847 38.0518 4.72576 37.753 5.23387 37.6036C5.74197 37.4542 6.30088 37.4542 6.8598 37.5538L6.35169 39.0478C5.94521 38.998 5.53873 39.0976 5.18306 39.2969C4.82738 39.4961 4.52252 39.8447 4.37009 40.3427C4.21766 40.7909 4.21766 41.1893 4.31928 41.5877C4.4209 41.9861 4.67495 42.3347 5.03063 42.6834C5.3863 43.032 5.84359 43.281 6.45332 43.4802C7.06304 43.6794 7.57114 43.779 8.07925 43.7292C8.58735 43.6794 8.99383 43.5798 9.3495 43.3308C9.70518 43.0818 9.95923 42.7332 10.1117 42.285C10.2133 41.9861 10.2641 41.6873 10.2133 41.4383C10.1625 41.1395 10.1117 40.8905 9.95923 40.6913C9.8068 40.4921 9.60356 40.2431 9.3495 40.0937L9.85761 38.5996C10.3657 38.8486 10.7722 39.1474 11.0771 39.5957C11.3819 39.9941 11.5852 40.4921 11.636 41.0399C11.636 41.5877 11.5852 42.1853 11.3311 42.783Z" fill="#F58A07"/>
<path d="M16.666 38.1517C16.5136 38.3509 16.412 38.5501 16.2595 38.6995C16.1071 38.8489 16.0055 38.9485 15.9039 39.0481L14.9385 38.0023C15.1417 37.8031 15.3449 37.554 15.4466 37.3548C15.5482 37.1556 15.599 36.9066 15.5482 36.7074C15.4974 36.4584 15.3449 36.2094 15.0909 35.8608L14.6844 35.4126L5.58936 33.7193L6.50394 32.2253L13.3633 33.7193L13.4141 33.6197L8.79041 28.4403L9.70499 26.9463L16.2595 34.7652C16.5644 35.1138 16.7676 35.5122 16.9201 35.8608C17.0725 36.2094 17.1233 36.6078 17.0725 36.9564C17.0217 37.305 16.8693 37.7533 16.666 38.1517Z" fill="#F58A07"/>
<path d="M21.5944 25.9503L20.7814 25.004L21.0355 19.5259C21.0355 18.9282 21.0863 18.4302 21.0355 18.0318C21.0355 17.6334 20.9846 17.235 20.883 16.9362C20.7814 16.6374 20.629 16.3385 20.4257 16.0895C20.1717 15.7907 19.8668 15.6413 19.562 15.5417C19.2571 15.4421 18.9014 15.4421 18.5966 15.5417C18.2917 15.6413 17.936 15.7907 17.682 16.0397C17.3771 16.2887 17.1739 16.5876 17.0214 16.9362C16.9198 17.235 16.869 17.5836 16.9706 17.9322C17.0722 18.2808 17.2247 18.5796 17.4787 18.8784L16.2593 19.9741C15.802 19.476 15.4971 18.9282 15.3955 18.3306C15.2939 17.733 15.3447 17.1354 15.5987 16.5876C15.8528 15.9899 16.2085 15.4919 16.7674 15.0437C17.3263 14.5955 17.8852 14.2967 18.4949 14.1473C19.1047 13.9979 19.6636 13.9979 20.2225 14.1971C20.7814 14.3465 21.2387 14.6453 21.6452 15.1433C21.95 15.4421 22.1533 15.7907 22.3057 16.2389C22.4581 16.6374 22.5598 17.1354 22.5598 17.7828C22.5598 18.4302 22.5598 19.1772 22.509 20.1733L22.3565 23.261L22.4073 23.3108L26.2689 19.9741L27.2343 21.0697L21.5944 25.9503Z" fill="#F58A07"/>
<path d="M33.0271 17.9321C32.2649 18.3305 31.4519 18.4799 30.6898 18.3803C29.9276 18.2807 29.1655 17.9321 28.4541 17.2847C27.7428 16.687 27.0823 15.8404 26.5233 14.7448C25.9136 13.6491 25.5579 12.7029 25.4563 11.7567C25.3547 10.8602 25.4563 10.0634 25.7612 9.36618C26.1169 8.66896 26.625 8.12114 27.4379 7.72273C28.2001 7.32431 28.9622 7.17491 29.7752 7.27451C30.5882 7.37411 31.2995 7.72272 32.0109 8.32035C32.7222 8.91797 33.3827 9.7646 33.9417 10.8104C34.5514 11.9061 34.9071 12.9021 35.0087 13.7985C35.1611 14.695 35.0595 15.5416 34.7038 16.189C34.3481 16.936 33.7892 17.4839 33.0271 17.9321ZM32.3157 16.6372C32.9763 16.2886 33.3319 15.691 33.3827 14.7946C33.4335 13.9479 33.0779 12.9021 32.4173 11.6571C31.9601 10.8602 31.5028 10.2128 30.9947 9.71479C30.4865 9.21678 30.0293 8.91797 29.5212 8.81836C29.013 8.71876 28.5558 8.76856 28.0985 9.01757C27.4379 9.36618 27.0823 9.9638 27.0314 10.8602C26.9806 11.7069 27.3363 12.7527 27.9968 13.9977C28.4541 14.8444 28.9114 15.4918 29.4195 15.94C29.9276 16.438 30.3849 16.687 30.893 16.8364C31.3503 16.936 31.8584 16.8862 32.3157 16.6372Z" fill="#F58A07"/>
<path d="M38.9208 14.9441L38.5651 13.7489L41.2072 8.91809C41.5121 8.42007 41.7153 7.92206 41.8678 7.57345C42.0202 7.17503 42.1726 6.82642 42.2234 6.52761C42.2743 6.2288 42.2743 5.88019 42.1726 5.58138C42.071 5.23277 41.9186 4.93396 41.6645 4.73475C41.4105 4.53554 41.1056 4.38614 40.8008 4.33634C40.4451 4.28653 40.0894 4.28654 39.7337 4.38614C39.3273 4.48574 39.0224 4.68495 38.7683 4.88416C38.5143 5.13316 38.3619 5.43197 38.2602 5.73078C38.1586 6.02959 38.2094 6.42801 38.311 6.82642L36.7359 7.27464C36.5327 6.62721 36.5327 5.97979 36.7359 5.43197C36.8884 4.83435 37.244 4.33634 37.7013 3.93792C38.1586 3.53951 38.7175 3.2407 39.4289 3.04149C40.1402 2.84229 40.7499 2.84229 41.3597 2.94189C41.9694 3.04149 42.4775 3.3403 42.9348 3.68891C43.3413 4.08733 43.6461 4.53554 43.8494 5.13316C43.951 5.53158 44.0018 5.92999 43.951 6.37821C43.9002 6.82642 43.7478 7.32444 43.4937 7.87226C43.2397 8.42007 42.884 9.1671 42.4267 10.0137L40.8516 12.8524V12.952L45.831 11.6074L46.2375 13.0018L38.9208 14.9441Z" fill="#F58A07"/>
<path d="M52.7414 12.5534C51.8776 12.6032 51.1154 12.404 50.4549 11.9558C49.7944 11.5076 49.2863 10.9099 48.9306 10.0633C48.5749 9.21669 48.3717 8.17085 48.27 6.97561C48.2192 5.78037 48.3209 4.73454 48.6257 3.83811C48.9306 2.94168 49.3879 2.29426 49.9976 1.79624C50.6073 1.29822 51.3695 1.04922 52.2333 0.999414C53.097 0.949612 53.8592 1.14882 54.5197 1.59703C55.1803 2.04525 55.6884 2.64287 56.044 3.4895C56.3997 4.33613 56.6538 5.38196 56.7046 6.5772C56.7554 7.82224 56.6538 8.86808 56.3489 9.71471C56.044 10.5613 55.5867 11.2586 55.0278 11.7566C54.3673 12.2546 53.6559 12.5036 52.7414 12.5534ZM52.6905 11.1092C53.4527 11.0594 54.0624 10.6609 54.4689 9.91391C54.8754 9.16689 55.0278 8.07125 54.977 6.6768C54.9262 5.73057 54.7738 4.98355 54.5705 4.33613C54.3673 3.6887 54.0116 3.24049 53.6559 2.89188C53.2495 2.59307 52.843 2.44366 52.3349 2.44366C51.5727 2.49346 50.963 2.89188 50.5565 3.6389C50.15 4.38593 49.9976 5.48156 50.0484 6.87601C50.0992 7.82224 50.2517 8.61907 50.4549 9.21669C50.6581 9.81431 51.0138 10.3123 51.3695 10.6609C51.7251 11.0095 52.1824 11.1092 52.6905 11.1092Z" fill="#F58A07"/>
<path d="M70.9315 8.37004L70.5758 9.76449L65.6472 8.46964L66.0029 7.0752L70.9315 8.37004Z" fill="#F58A07"/>
<path d="M76.4192 17.384L77.0797 16.3382L82.5164 15.0433C83.0754 14.8939 83.5835 14.7445 83.9899 14.6449C84.3964 14.5453 84.7521 14.3461 85.0062 14.1967C85.2602 14.0473 85.5143 13.7983 85.6667 13.4995C85.8699 13.2007 85.9715 12.8521 85.9715 12.5533C85.9715 12.2046 85.8699 11.9058 85.7175 11.6568C85.5143 11.358 85.2602 11.109 84.9553 10.9098C84.5997 10.7106 84.244 10.5612 83.8883 10.5612C83.5327 10.5612 83.2278 10.611 82.9229 10.7604C82.6181 10.9098 82.364 11.1588 82.1608 11.5074L80.7889 10.6608C81.1446 10.0632 81.6019 9.66476 82.1608 9.41575C82.7197 9.16674 83.2786 9.06714 83.9391 9.11694C84.5489 9.16674 85.1586 9.36595 85.7683 9.76436C86.378 10.1628 86.8353 10.611 87.1402 11.109C87.4451 11.6568 87.5975 12.2046 87.5975 12.7525C87.5975 13.3003 87.445 13.8481 87.0894 14.3461C86.8861 14.6947 86.5813 14.9935 86.2256 15.2425C85.8699 15.4916 85.4126 15.7406 84.8029 15.9398C84.1932 16.139 83.431 16.3382 82.4656 16.5872L79.2646 17.384L79.2138 17.4338L83.5835 20.1231L82.7705 21.3682L76.4192 17.384Z" fill="#F58A07"/>
<path d="M87.4953 25.8008C86.8856 25.2031 86.5299 24.5059 86.3775 23.7589C86.2759 23.0119 86.3775 22.215 86.784 21.3684C87.1904 20.5218 87.8002 19.6751 88.7148 18.8285C89.5785 17.9819 90.4423 17.3345 91.3061 16.9859C92.1699 16.5874 92.9828 16.4878 93.745 16.5874C94.5071 16.687 95.2185 17.0855 95.8282 17.6831C96.4379 18.2807 96.7936 18.9779 96.946 19.7249C97.0476 20.472 96.946 21.2688 96.5395 22.1154C96.1331 22.9621 95.5233 23.8087 94.6596 24.6553C93.7958 25.5019 92.8812 26.1494 92.0682 26.498C91.2045 26.8964 90.3915 26.996 89.6293 26.8964C88.8164 26.7968 88.105 26.3984 87.4953 25.8008ZM88.5623 24.7549C89.1212 25.3027 89.7818 25.4521 90.6455 25.2529C91.5093 25.0537 92.4239 24.4063 93.4401 23.4601C94.1006 22.8126 94.6087 22.1652 94.9644 21.5676C95.2693 20.97 95.4217 20.4222 95.4217 19.9242C95.4217 19.4261 95.2185 19.0277 94.8628 18.6293C94.3039 18.0815 93.6434 17.9321 92.7796 18.1313C91.9158 18.3305 91.0012 18.9779 89.985 19.9242C89.3245 20.5716 88.8164 21.219 88.4607 21.8166C88.1558 22.4142 88.0034 22.9621 88.0034 23.4601C88.0034 24.0079 88.2066 24.4063 88.5623 24.7549Z" fill="#F58A07"/>
<path d="M92.0686 30.5314L93.1356 29.884L98.5723 31.0295C99.182 31.1291 99.6901 31.2287 100.097 31.2785C100.503 31.3283 100.91 31.3283 101.214 31.2785C101.519 31.2287 101.824 31.1291 102.129 30.9299C102.434 30.7307 102.688 30.4816 102.84 30.1828C102.993 29.884 103.044 29.5852 102.993 29.2366C102.942 28.888 102.84 28.5892 102.637 28.2406C102.434 27.892 102.18 27.6429 101.875 27.4935C101.57 27.3441 101.265 27.2445 100.91 27.2943C100.554 27.2943 100.198 27.4437 99.8934 27.6429L99.0296 26.2485C99.6393 25.8999 100.198 25.7007 100.859 25.7007C101.519 25.7007 102.027 25.8501 102.586 26.1489C103.145 26.4477 103.603 26.8959 103.958 27.4935C104.365 28.0912 104.568 28.6888 104.619 29.2864C104.67 29.884 104.568 30.4318 104.314 30.9797C104.06 31.5275 103.653 31.9259 103.145 32.2247C102.79 32.4239 102.383 32.5733 101.977 32.6729C101.57 32.7725 101.011 32.7725 100.401 32.6729C99.7918 32.6231 98.9788 32.4737 98.0134 32.2745L94.7615 31.6271L94.7107 31.6769L97.4545 35.9598L96.1842 36.7069L92.0686 30.5314Z" fill="#F58A07"/>
<path d="M109.446 39.197L98.7247 43.1812L98.115 41.5875L107.21 38.201V38.1512L104.568 36.2588L106.092 35.6611L108.836 37.6532L109.446 39.197Z" fill="#F58A07"/>
<path d="M116 52.2453L97.2511 54.1377L97.0986 52.6935L115.848 50.801L116 52.2453Z" fill="#F58A07"/>
<path d="M112.037 65.2933L100.655 63.9486L100.859 62.3052L112.24 63.6498L112.037 65.2933Z" fill="#F58A07"/>
<path d="M99.1312 70.1239C99.3344 69.3769 99.7409 68.7295 100.249 68.2813C100.757 67.833 101.418 67.5342 102.129 67.3848C102.84 67.2354 103.653 67.2852 104.517 67.5342C105.381 67.7832 106.092 68.1318 106.651 68.6299C107.21 69.1279 107.566 69.7255 107.769 70.3729C107.972 71.0203 107.921 71.7674 107.718 72.5144C107.515 73.2614 107.108 73.9088 106.6 74.3571C106.092 74.8053 105.432 75.1041 104.72 75.2535C104.009 75.4029 103.196 75.3531 102.332 75.1041C101.468 74.8551 100.757 74.5065 100.249 74.0084C99.6901 73.5104 99.3344 72.9128 99.1312 72.2654C98.9279 71.618 98.9279 70.8709 99.1312 70.1239ZM100.503 70.5223C100.351 71.0203 100.351 71.4686 100.554 71.867C100.757 72.2654 101.011 72.614 101.418 72.863C101.824 73.1618 102.281 73.361 102.79 73.5104C103.298 73.6598 103.806 73.7096 104.314 73.7096C104.822 73.6598 105.228 73.5602 105.584 73.3112C105.94 73.0622 106.194 72.7136 106.346 72.2156C106.499 71.7176 106.499 71.2694 106.295 70.8709C106.143 70.4725 105.838 70.1239 105.432 69.8251C105.025 69.5263 104.568 69.3271 104.06 69.1777C103.552 69.0283 103.044 68.9785 102.535 68.9785C102.027 69.0283 101.621 69.1279 101.265 69.4267C100.91 69.6757 100.655 70.0243 100.503 70.5223Z" fill="#F58A07"/>
<path d="M100.96 79.8853L96.4888 77.4948L97.3018 76.0505L104.872 80.0347L104.11 81.4291L102.891 80.7817L102.84 80.8813C103.145 81.2797 103.297 81.6781 103.348 82.1762C103.399 82.6742 103.247 83.1722 102.942 83.7698C102.688 84.2678 102.332 84.6662 101.875 84.9153C101.468 85.1643 100.96 85.3137 100.452 85.3137C99.8931 85.3137 99.3342 85.1145 98.7244 84.8156L93.8975 82.2758L94.7104 80.8315L99.3342 83.2718C99.8931 83.5706 100.401 83.6702 100.858 83.5208C101.316 83.4212 101.671 83.1224 101.976 82.6244C102.18 82.2758 102.23 81.9769 102.23 81.6283C102.23 81.2797 102.129 80.9809 101.926 80.6821C101.671 80.3833 101.367 80.1343 100.96 79.8853Z" fill="#F58A07"/>
<path d="M90.0868 86.7576C90.5441 86.2595 91.103 85.9109 91.7127 85.7117C92.3224 85.5623 92.983 85.5623 93.6943 85.7615C94.4057 85.9607 95.117 86.3591 95.7775 86.9568C96.4381 87.5544 96.997 88.2018 97.251 88.8492C97.5559 89.4966 97.6575 90.1441 97.5559 90.7915C97.4543 91.4389 97.2002 91.9867 96.7429 92.4847C96.3873 92.8832 96.0316 93.1322 95.6759 93.2816C95.3202 93.431 95.0154 93.4808 94.7105 93.431C94.4057 93.431 94.1516 93.3812 93.9484 93.3314L93.8976 93.3812L97.0986 96.1203L95.9808 97.3653L87.343 89.9947L88.41 88.7994L89.4262 89.646L89.5279 89.5464C89.4771 89.3472 89.3754 89.0982 89.3246 88.7994C89.2738 88.5006 89.2738 88.2018 89.3754 87.8532C89.4771 87.5046 89.7311 87.156 90.0868 86.7576ZM90.8997 87.9528C90.5949 88.3014 90.3916 88.6998 90.3916 89.0982C90.3916 89.4966 90.4933 89.9449 90.6965 90.3433C90.9506 90.7417 91.2554 91.1899 91.7127 91.5385C92.17 91.9369 92.6273 92.1859 93.0846 92.3353C93.5419 92.4847 93.9484 92.5345 94.3548 92.4349C94.7613 92.3353 95.117 92.1361 95.4219 91.7875C95.7267 91.4389 95.93 91.0405 95.93 90.5923C95.93 90.1939 95.8283 89.7456 95.6251 89.3472C95.3711 88.9488 95.0662 88.5504 94.6597 88.2018C94.2024 87.8532 93.7959 87.5544 93.3386 87.405C92.8813 87.2556 92.4241 87.2058 92.0176 87.2556C91.6111 87.3552 91.2554 87.6042 90.8997 87.9528Z" fill="#F58A07"/>
<path d="M82.3129 93.9295C82.9734 93.4812 83.634 93.1824 84.3453 93.1326C85.0566 93.0828 85.7172 93.1824 86.3777 93.531C87.0383 93.8797 87.648 94.3777 88.1561 95.0749C88.6642 95.7721 89.0199 96.4693 89.1723 97.2164C89.3247 97.9136 89.2231 98.6108 88.9691 99.2582C88.715 99.9056 88.2577 100.453 87.5972 100.951C86.9366 101.4 86.2761 101.699 85.5647 101.748C84.8534 101.798 84.1929 101.649 83.5323 101.35C82.8718 101.001 82.2621 100.503 81.754 99.806C81.2459 99.1088 80.8902 98.4116 80.7886 97.6646C80.687 96.9176 80.7378 96.2701 80.9918 95.6227C81.1951 94.9255 81.6523 94.3777 82.3129 93.9295ZM83.1259 95.0251C82.7194 95.3239 82.4653 95.6725 82.3129 96.1207C82.1605 96.5689 82.2113 96.9674 82.3637 97.4156C82.5161 97.8638 82.7194 98.312 83.075 98.7602C83.3799 99.2084 83.7864 99.557 84.1929 99.806C84.5994 100.055 85.0058 100.204 85.4631 100.254C85.9204 100.304 86.3269 100.155 86.7334 99.806C87.1399 99.5072 87.4447 99.1586 87.5464 98.7104C87.648 98.2622 87.648 97.8638 87.4955 97.3658C87.3431 96.9176 87.1399 96.4693 86.7842 96.0211C86.4793 95.5729 86.0729 95.2243 85.6664 94.9753C85.2599 94.7263 84.8534 94.5769 84.3961 94.5769C83.9896 94.5769 83.5831 94.7263 83.1259 95.0251Z" fill="#F58A07"/>
<path d="M77.6889 102.745L75.6056 98.1628L77.1299 97.4656L80.6867 105.135L79.2132 105.782L78.6543 104.537L78.5526 104.587C78.5526 105.085 78.451 105.533 78.1462 105.932C77.8921 106.33 77.4348 106.679 76.8759 106.928C76.317 107.177 75.8089 107.276 75.3008 107.227C74.7927 107.177 74.3354 106.978 73.9289 106.679C73.5224 106.38 73.1667 105.882 72.8619 105.235L70.6262 100.354L72.1505 99.6569L74.3354 104.338C74.5894 104.886 74.9451 105.284 75.4024 105.434C75.8597 105.633 76.317 105.583 76.8251 105.384C77.1808 105.235 77.4348 105.035 77.638 104.737C77.8413 104.488 77.9429 104.139 77.9937 103.79C77.9937 103.541 77.8921 103.193 77.6889 102.745Z" fill="#F58A07"/>
</svg>
