<svg width="22" height="20" viewBox="0 0 22 20" fill="none" xmlns="http://www.w3.org/2000/svg">
<g clip-path="url(#clip0)">
<path d="M15.5562 1.6665H6.66327C4.20755 1.6665 2.2168 3.53198 2.2168 5.83317V14.1665C2.2168 16.4677 4.20755 18.3332 6.66327 18.3332H15.5562C18.0119 18.3332 20.0027 16.4677 20.0027 14.1665V5.83317C20.0027 3.53198 18.0119 1.6665 15.5562 1.6665Z" stroke="white" stroke-width="2" stroke-linecap="round" stroke-linejoin="round"/>
<path d="M14.6667 9.47476C14.7765 10.1683 14.65 10.8766 14.3054 11.4989C13.9608 12.1213 13.4156 12.6259 12.7473 12.9412C12.079 13.2564 11.3216 13.3661 10.5829 13.2547C9.84417 13.1433 9.16176 12.8165 8.6327 12.3207C8.10364 11.825 7.75487 11.1855 7.636 10.4933C7.51713 9.80106 7.63422 9.09134 7.97061 8.46507C8.30699 7.83881 8.84555 7.32788 9.50967 7.00496C10.1738 6.68205 10.9297 6.56359 11.6698 6.66643C12.4247 6.77133 13.1236 7.10098 13.6633 7.60668C14.203 8.11239 14.5548 8.76733 14.6667 9.47476Z" stroke="white" stroke-width="2" stroke-linecap="round" stroke-linejoin="round"/>
<path d="M16.0005 5.4165H16.0101" stroke="white" stroke-width="2" stroke-linecap="round" stroke-linejoin="round"/>
</g>
<defs>
<clipPath id="clip0">
<rect width="21.3431" height="20" fill="white" transform="translate(0.437988)"/>
</clipPath>
</defs>
</svg>
