<svg width="22" height="20" viewBox="0 0 22 20" fill="none" xmlns="http://www.w3.org/2000/svg">
<path d="M21.1109 2.50008C20.2593 3.06298 19.3164 3.4935 18.3185 3.77508C17.7829 3.198 17.0711 2.78899 16.2794 2.60335C15.4876 2.41771 14.6541 2.46441 13.8916 2.73712C13.1291 3.00984 12.4744 3.49541 12.016 4.12818C11.5576 4.76094 11.3177 5.51036 11.3286 6.27508V7.10841C9.76581 7.14639 8.21723 6.82159 6.8208 6.16295C5.42437 5.50431 4.22344 4.53228 3.32498 3.33341C3.32498 3.33341 -0.232202 10.8334 7.77145 14.1667C5.93997 15.3317 3.7582 15.9159 1.54639 15.8334C9.55004 20.0001 19.3323 15.8334 19.3323 6.25008C19.3315 6.01796 19.3076 5.78641 19.2611 5.55841C20.1687 4.71966 20.8092 3.66067 21.1109 2.50008Z" fill="white"/>
</svg>
