<svg width="22" height="20" viewBox="0 0 22 20" fill="none" xmlns="http://www.w3.org/2000/svg">
<path fill-rule="evenodd" clip-rule="evenodd" d="M19.6396 4.29967C19.9425 4.59231 20.1577 4.95467 20.2633 5.35016C20.5454 6.81574 20.6824 8.30263 20.6724 9.79183C20.678 11.2588 20.5411 12.7232 20.2633 14.1668C20.1577 14.5623 19.9425 14.9247 19.6396 15.2173C19.3367 15.51 18.9567 15.7225 18.5381 15.8335C17.0085 16.2168 10.8902 16.2168 10.8902 16.2168C10.8902 16.2168 4.77182 16.2168 3.24224 15.8335C2.83211 15.7283 2.45786 15.5258 2.15565 15.2456C1.85343 14.9653 1.63347 14.6167 1.51701 14.2335C1.23489 12.7679 1.09795 11.281 1.10793 9.79183C1.10014 8.31375 1.23707 6.83813 1.51701 5.3835C1.62264 4.988 1.83779 4.62564 2.14071 4.333C2.44363 4.04036 2.8236 3.82782 3.24224 3.71683C4.77182 3.3335 10.8902 3.3335 10.8902 3.3335C10.8902 3.3335 17.0085 3.3335 18.5381 3.6835C18.9567 3.79448 19.3367 4.00703 19.6396 4.29967ZM14.0031 9.79186L8.88962 12.5169V7.06686L14.0031 9.79186Z" fill="white"/>
</svg>
